<svg xmlns="http://www.w3.org/2000/svg" xmlns:xlink="http://www.w3.org/1999/xlink" version="1.1" x="0px" y="0px" viewBox="0 0 64 80" style="enable-background:new 0 0 64 64;" xml:space="preserve"><g><polygon points="7.9,17.8 7.9,17.8 7.9,17.8  "/><path d="M55.8,12.6l4,4v-2.4V4H47.2l4,4l-2,2C44.4,6.3,38.5,4,32,4c-0.3,0-0.6,0-0.9,0v0l0,0l0,0l0,0C21.2,4.4,12.6,9.8,7.9,17.8   C5.4,21.9,4,26.8,4,32c0,15.5,12.5,28,28,28c6.7,0,13-2.4,17.8-6.4l0,0C56,48.5,60,40.8,60,32c0-0.7,0-1.4-0.1-2h0l0,0l0,0l0,0   c-0.4-5.8-2.6-11.1-6.1-15.4L55.8,12.6z M54,7.9l-2-2h5.8v5.8l-2-2L42.5,23l-1.8-1.8L54,7.9z M30.2,6.1c0,0.2,0,0.3,0,0.5   c0,1.1-0.1,2.6-0.4,4c-0.1,0.7-0.3,1.3-0.6,1.8c-0.2,0.5-0.5,0.9-0.8,1.1c-1.1,0.8-2,1.7-2.7,2.7c-0.7,1-1.1,2.1-1.1,3.2   c0,0.7,0.2,1.4,0.5,2c0.4,0.8,0.7,1.7,0.7,2.6c0,1.1-0.3,2.1-1,2.8c-0.7,0.8-1.7,2-2.4,3.2c-0.4,0.6-0.8,1.2-1,1.8   c-0.3,0.6-0.5,1.2-0.5,1.9c0,0.4,0.1,0.8,0.3,1.2c0.2,0.4,0.4,0.8,0.6,1.2c0.1,0.4,0.2,0.7,0.2,0.8l-0.2,0h0l0,0c0,0-0.2,0-0.4-0.1   c-0.4-0.2-1-0.5-1.6-1C18.9,35.1,18,34,17.3,33c-0.7-1.1-1.1-2.1-1.1-2.9c0-0.4,0-0.8,0-1.2c0-1.4,0-2.6-0.3-3.7   c-0.2-0.5-0.4-1.1-0.9-1.5c-0.5-0.4-1.1-0.6-1.7-0.6c0,0-0.1,0-0.3-0.1c-0.3-0.2-0.7-0.6-1.1-1.1c-0.6-0.8-1.1-1.8-1.5-2.6   c-0.2-0.4-0.3-0.7-0.4-1C14.2,11.5,21.6,6.7,30.2,6.1z M58,32c0,7.9-3.5,14.9-9,19.7c-0.3-0.1-0.6-0.3-0.9-0.5   c-0.3-0.2-0.7-0.5-0.9-0.8c-0.3-0.3-0.4-0.6-0.5-0.9c-0.2-0.9-0.6-1.9-1.4-2.7c-0.8-0.8-2-1.4-3.5-1.4c-0.7,0-1.4,0.1-2.2,0.3   c-0.8,0.2-1.5,0.3-2.3,0.3c-1.2,0-2.2-0.3-2.9-0.7c-0.3-0.2-0.6-0.4-0.7-0.6c-0.1-0.2-0.2-0.3-0.2-0.5l0-0.2c0.1-0.3,0.3-0.6,0.7-1   c0.6-0.5,1.4-1,2.3-1.3c0.9-0.4,1.8-0.7,2.4-1c0.9-0.4,1.4-1.2,1.7-2.1c0.3-0.9,0.5-1.8,0.5-2.8c0-0.8-0.1-1.5-0.4-2.2l0-0.1   c0,0,0-0.2,0.3-0.4c0.3-0.4,1-0.8,1.7-1c0.7-0.3,1.6-0.5,2.2-0.4c0.2,0,0.4,0,0.6,0.1c0.4,0.1,0.7,0.1,1.1,0.1c1.2,0,2.3-0.4,3.3-1   c1-0.6,1.9-1.3,2.6-2.1l0.1,0c0.1,0,0.2,0,0.3,0c0.4,0,0.9,0.1,1.6,0.3c0.9,0.3,2,0.8,2.7,1.2c0.3,0.2,0.6,0.3,0.8,0.4   C58,31.1,58,31.6,58,32z M57.7,28.3c-0.2-0.1-0.4-0.2-0.6-0.3c-0.7-0.3-1.4-0.6-2.1-0.9c-0.7-0.2-1.5-0.4-2.2-0.4   c-0.3,0-0.6,0-1,0.1c-0.3,0.1-0.6,0.3-0.9,0.6c-0.5,0.6-1.3,1.2-2.1,1.7c-0.8,0.5-1.6,0.8-2.3,0.8c-0.2,0-0.4,0-0.5-0.1   c-0.4-0.1-0.7-0.1-1.1-0.1c-1.2,0-2.6,0.4-3.8,1c-0.6,0.3-1.1,0.7-1.6,1.1c-0.4,0.5-0.8,1.1-0.8,1.8c0,0.2,0,0.5,0.1,0.7   c0.2,0.4,0.2,1,0.2,1.6c0,0.7-0.1,1.5-0.4,2.1c-0.2,0.6-0.6,1-0.7,1c-0.3,0.1-0.8,0.3-1.4,0.6c-0.9,0.3-2,0.8-2.9,1.4   c-0.5,0.3-0.9,0.7-1.3,1.1c-0.4,0.4-0.7,1-0.9,1.6c-0.1,0.2-0.1,0.4-0.1,0.7c0,0.6,0.2,1.2,0.6,1.7c0.5,0.7,1.3,1.2,2.2,1.5   c0.9,0.3,1.9,0.5,3.1,0.5c0.9,0,1.9-0.1,2.8-0.4c0.7-0.2,1.2-0.3,1.7-0.3c1,0,1.6,0.3,2,0.8c0.4,0.5,0.8,1.2,0.9,1.8   c0.2,0.7,0.5,1.3,1,1.7c0.5,0.6,1.1,1,1.6,1.3c-4.3,3.1-9.6,5-15.3,5c-7.2,0-13.7-2.9-18.4-7.6C8.9,45.7,6,39.2,6,32   c0-4.1,1-8,2.7-11.5c0.2,0.4,0.4,0.8,0.6,1.2c0.4,0.8,0.9,1.6,1.5,2.2c0.3,0.3,0.6,0.6,1,0.8c0.4,0.2,0.8,0.4,1.3,0.4   c0.3,0,0.4,0.1,0.5,0.1c0.1,0,0.1,0.1,0.2,0.3c0.1,0.3,0.2,0.7,0.3,1.3c0,0.6,0.1,1.3,0.1,2c0,0.4,0,0.8,0,1.2   c0,1.1,0.4,2.1,0.9,3.1c0.8,1.5,2,2.9,3.2,3.9c0.6,0.5,1.2,1,1.8,1.3c0.6,0.3,1.2,0.6,1.8,0.6l0.2,0l0,0c0.5,0,1.1-0.2,1.5-0.6   c0.2-0.2,0.3-0.4,0.4-0.7c0.1-0.2,0.1-0.5,0.1-0.7c0-0.6-0.2-1.1-0.4-1.6c-0.2-0.5-0.4-1-0.7-1.4c0,0,0-0.1,0-0.2   c0-0.2,0.1-0.6,0.3-1.1c0.6-1.4,2.1-3.3,3.2-4.5c1-1.2,1.5-2.7,1.5-4.1c0-1.3-0.3-2.6-1-3.6l0-0.1l0,0.1c-0.2-0.3-0.3-0.6-0.3-1   c0-0.6,0.2-1.3,0.7-2.1c0.5-0.8,1.3-1.5,2.2-2.2c0.6-0.5,1.1-1.1,1.4-1.8c0.5-1.1,0.8-2.3,0.9-3.5c0.2-1.2,0.2-2.3,0.2-3.2   c0-0.2,0-0.4,0-0.6c5.9,0,11.2,2,15.5,5.3l-9.8,9.8l4.6,4.6l9.9-9.9C55.2,19.5,57,23.7,57.7,28.3z"/><polygon points="22.1,38.9 22.1,39 22.1,39  "/></g><text x="0" y="79" fill="#000000" font-size="5px" font-weight="bold" font-family="'Helvetica Neue', Helvetica, Arial-Unicode, Arial, Sans-serif">Created by Deant</text><text x="0" y="84" fill="#000000" font-size="5px" font-weight="bold" font-family="'Helvetica Neue', Helvetica, Arial-Unicode, Arial, Sans-serif">from the Noun Project</text></svg>